<svg height="512" viewBox="0 0 64 64" width="512" xmlns="http://www.w3.org/2000/svg"><g id="badminton_court-badminton-coronavirus-virus-outbreck" data-name="badminton court-badminton-coronavirus-virus-outbreck"><path d="m57 23h4v38h-4z" fill="#898890"/><path d="m50 37h7v6h-7z" fill="#c6c5ca"/><path d="m50 31h7v6h-7z" fill="#e0e0e2"/><path d="m50 25h7v6h-7z" fill="#c6c5ca"/><path d="m54.83 9.17a4.008 4.008 0 1 1 -2.83-1.17 4.025 4.025 0 0 1 2.83 1.17z" fill="#d43237"/><path d="m43 55v-2h8v4h-8z" fill="#fee9ab"/><path d="m44 37h6v6h-6z" fill="#e0e0e2"/><path d="m44 31h6v6h-6z" fill="#c6c5ca"/><path d="m44 25h6v6h-6z" fill="#e0e0e2"/><path d="m38 37h6v6h-6z" fill="#c6c5ca"/><path d="m38 31h6v6h-6z" fill="#e0e0e2"/><path d="m38 25h6v6h-6z" fill="#c6c5ca"/><path d="m32 37h6v6h-6z" fill="#e0e0e2"/><path d="m32 31h6v6h-6z" fill="#c6c5ca"/><path d="m32 25h6v6h-6z" fill="#e0e0e2"/><path d="m37.91 6-1.46 4h-4.45v-4z" fill="#c6c5ca"/><path d="m36.45 10-1.45 4h-3v-4z" fill="#e0e0e2"/><path d="m35 14v1a3 3 0 0 1 -6 0v-1z" fill="#acabb1"/><path d="m26 37h6v6h-6z" fill="#c6c5ca"/><path d="m26 31h6v6h-6z" fill="#e0e0e2"/><path d="m26 25h6v6h-6z" fill="#c6c5ca"/><path d="m32 10v4h-3l-1.45-4z" fill="#c6c5ca"/><path d="m32 6v4h-4.45l-1.46-4z" fill="#e0e0e2"/><path d="m20 37h6v6h-6z" fill="#e0e0e2"/><path d="m20 31h6v6h-6z" fill="#c6c5ca"/><path d="m20 25h6v6h-6z" fill="#e0e0e2"/><path d="m14 37h6v6h-6z" fill="#c6c5ca"/><path d="m14 31h6v6h-6z" fill="#e0e0e2"/><path d="m14 25h6v6h-6z" fill="#c6c5ca"/><path d="m23 49h-4a5.993 5.993 0 0 0 -2.21.42 5.8 5.8 0 0 0 -2.03 1.34 5.944 5.944 0 0 0 -1.76 4.24 5.994 5.994 0 0 0 6 6h4a5.944 5.944 0 0 0 4.24-1.76 5.8 5.8 0 0 0 1.34-2.03 6 6 0 0 0 -5.58-8.21z" fill="#e0e0e2"/><path d="m14.83 9.17a4.008 4.008 0 1 1 -2.83-1.17 4.025 4.025 0 0 1 2.83 1.17z" fill="#d43237"/><path d="m7 37h7v6h-7z" fill="#e0e0e2"/><path d="m7 31h7v6h-7z" fill="#c6c5ca"/><path d="m7 25h7v6h-7z" fill="#e0e0e2"/><path d="m3 23h4v38h-4z" fill="#898890"/><path d="m16 12a3.994 3.994 0 0 1 -6 3.46 4.225 4.225 0 0 0 .83-.63 4.008 4.008 0 0 0 0-5.66 4.225 4.225 0 0 0 -.83-.63 3.995 3.995 0 0 1 6 3.46z" fill="#ab2300"/><path d="m56 12a3.994 3.994 0 0 1 -6 3.46 4.225 4.225 0 0 0 .83-.63 4.008 4.008 0 0 0 0-5.66 4.225 4.225 0 0 0 -.83-.63 3.995 3.995 0 0 1 6 3.46z" fill="#ab2300"/><path d="m59 23h2v38h-2z" fill="#787680"/><path d="m5 23h2v38h-2z" fill="#787680"/><path d="m61 22h-4a1 1 0 0 0 -1 1v1h-48v-1a1 1 0 0 0 -1-1h-4a1 1 0 0 0 -1 1v38a1 1 0 0 0 1 1h4a1 1 0 0 0 1-1v-17h48v17a1 1 0 0 0 1 1h4a1 1 0 0 0 1-1v-38a1 1 0 0 0 -1-1zm-55 38h-2v-36h2zm7-18h-5v-4h5zm0-6h-5v-4h5zm0-6h-5v-4h5zm6 12h-4v-4h4zm0-6h-4v-4h4zm0-6h-4v-4h4zm6 12h-4v-4h4zm0-6h-4v-4h4zm0-6h-4v-4h4zm6 12h-4v-4h4zm0-6h-4v-4h4zm0-6h-4v-4h4zm6 12h-4v-4h4zm0-6h-4v-4h4zm0-6h-4v-4h4zm6 12h-4v-4h4zm0-6h-4v-4h4zm0-6h-4v-4h4zm6 12h-4v-4h4zm0-6h-4v-4h4zm0-6h-4v-4h4zm7 12h-5v-4h5zm0-6h-5v-4h5zm0-6h-5v-4h5zm4 30h-2v-36h2z"/><path d="m38.06 2.66-.85 2.34h-4.21v-2h-2v2h-4.21l-.85-2.34-1.88.68 3.94 10.84v.82a4 4 0 0 0 8 0v-.82l3.94-10.84zm-10.54 4.34h3.48v2h-2.75zm1.45 4h2.03v2h-1.3zm3.03 6a2.006 2.006 0 0 1 -2-2h4a2.006 2.006 0 0 1 -2 2zm2.3-4h-1.3v-2h2.03zm1.45-4h-2.75v-2h3.48z"/><path d="m51 52h-8a1 1 0 0 0 -1 1v1h-12.08a7 7 0 0 0 -6.92-6h-4a7 7 0 0 0 0 14h4a7 7 0 0 0 6.92-6h12.08v1a1 1 0 0 0 1 1h8a1 1 0 0 0 1-1v-4a1 1 0 0 0 -1-1zm-25-.97a4.462 4.462 0 0 1 .97.97h-.97zm-10 7.94a4.462 4.462 0 0 1 -.97-.97h.97zm0-2.97h-1.9a5.05 5.05 0 0 1 0-2h1.9zm0-4h-.97a4.462 4.462 0 0 1 .97-.97zm4 8h-1a5.468 5.468 0 0 1 -1-.1v-1.9h2zm0-4h-2v-2h2zm0-4h-2v-1.9a5.468 5.468 0 0 1 1-.1h1zm4 7.9a5.468 5.468 0 0 1 -1 .1h-1v-2h2zm0-3.9h-2v-2h2zm0-4h-2v-2h1a5.468 5.468 0 0 1 1 .1zm2 6.97v-.97h.97a4.462 4.462 0 0 1 -.97.97zm1.9-2.97h-1.9v-2h1.9a5.05 5.05 0 0 1 0 2zm22.1 0h-6v-2h6z"/><path d="m11 11h2v2h-2z"/><path d="m4 14a1.993 1.993 0 0 0 1.722-1h1.378a4.961 4.961 0 0 0 .732 1.753l-.99.99a2.033 2.033 0 0 0 -1.914.5 2.012 2.012 0 1 0 3.34.9l.978-.978a4.961 4.961 0 0 0 1.754.735v1.379a2 2 0 1 0 2 0v-1.379a4.961 4.961 0 0 0 1.753-.732l.978.978a1.95 1.95 0 0 0 .512 1.926 2 2 0 1 0 2.828-2.828 2.033 2.033 0 0 0 -1.914-.5l-.99-.99a4.961 4.961 0 0 0 .733-1.754h1.379a2 2 0 1 0 0-2h-1.379a4.961 4.961 0 0 0 -.732-1.753l.978-.978a1.95 1.95 0 0 0 1.926-.512 2 2 0 0 0 0-2.827 2.046 2.046 0 0 0 -2.828 0 1.95 1.95 0 0 0 -.512 1.926l-.978.978a4.961 4.961 0 0 0 -1.754-.734v-1.378a2 2 0 1 0 -2 0v1.378a4.961 4.961 0 0 0 -1.753.732l-.978-.978a1.95 1.95 0 0 0 -.512-1.926 2.046 2.046 0 0 0 -2.827 0 1.989 1.989 0 0 0 1.925 3.34l.978.978a4.961 4.961 0 0 0 -.733 1.754h-1.378a2 2 0 1 0 -1.722 3zm8-5a3 3 0 1 1 -3 3 3 3 0 0 1 3-3z"/><path d="m51 11h2v2h-2z"/><path d="m44 14a1.993 1.993 0 0 0 1.722-1h1.378a4.961 4.961 0 0 0 .732 1.753l-.99.99a2.033 2.033 0 0 0 -1.914.5 2.012 2.012 0 1 0 3.34.9l.978-.978a4.961 4.961 0 0 0 1.754.735v1.379a2 2 0 1 0 2 0v-1.379a4.961 4.961 0 0 0 1.753-.732l.978.978a1.95 1.95 0 0 0 .512 1.926 2 2 0 1 0 2.828-2.828 2.033 2.033 0 0 0 -1.914-.5l-.99-.99a4.961 4.961 0 0 0 .733-1.754h1.379a2 2 0 1 0 0-2h-1.379a4.961 4.961 0 0 0 -.732-1.753l.978-.978a1.95 1.95 0 0 0 1.926-.512 2 2 0 0 0 0-2.827 2.046 2.046 0 0 0 -2.828 0 1.95 1.95 0 0 0 -.512 1.926l-.978.978a4.961 4.961 0 0 0 -1.754-.734v-1.378a2 2 0 1 0 -2 0v1.378a4.961 4.961 0 0 0 -1.753.732l-.978-.978a1.95 1.95 0 0 0 -.512-1.926 2.046 2.046 0 0 0 -2.827 0 1.989 1.989 0 0 0 1.925 3.34l.978.978a4.961 4.961 0 0 0 -.733 1.754h-1.378a2 2 0 1 0 -1.722 3zm8-5a3 3 0 1 1 -3 3 3 3 0 0 1 3-3z"/></g></svg>