<svg id="Capa_1" enable-background="new 0 0 512 512" height="512" viewBox="0 0 512 512" width="512" xmlns="http://www.w3.org/2000/svg"><g><g><path d="m492.435 338.725h-472.87c-6.627 0-12-5.373-12-12v-307.195c0-6.627 5.373-12 12-12h472.871c6.627 0 12 5.373 12 12v307.195c-.001 6.627-5.373 12-12.001 12z" fill="#dd636e"/></g><g><path d="m492.539 7.53h-17.877v289.524c0 6.57-5.326 11.897-11.897 11.897h-455.2v17.877c0 6.57 5.326 11.897 11.897 11.897h473.077c6.57 0 11.897-5.326 11.897-11.897v-307.401c-.001-6.571-5.327-11.897-11.897-11.897z" fill="#da4a54"/></g><g><circle cx="368.472" cy="369.437" fill="#e49542" r="135.099"/></g><g><path d="m464.002 273.908c-7.484-7.484-15.63-13.904-24.246-19.265 32.43 52.124 26.01 121.538-19.265 166.813s-114.689 51.695-166.813 19.265c5.361 8.617 11.781 16.762 19.265 24.246 52.76 52.76 138.3 52.76 191.059 0 52.76-52.76 52.76-138.3 0-191.059z" fill="#df751c"/></g><g><path d="m511.965 326.677v-307.099c0-10.795-8.782-19.578-19.578-19.578h-390.34c-4.159 0-7.53 3.371-7.53 7.53s3.371 7.53 7.53 7.53h145.945v97.934c-30.539 3.729-54.276 29.801-54.276 61.331s23.737 57.602 54.276 61.331v6.304c0 4.159 3.371 7.53 7.53 7.53s7.53-3.371 7.53-7.53v-6.304c30.539-3.729 54.276-29.801 54.276-61.331s-23.737-57.602-54.276-61.331v-97.934h229.335c2.491 0 4.518 2.027 4.518 4.518v40.242h-42.966c-62.477 0-113.307 50.829-113.307 113.307 0 19.185 4.778 37.755 13.878 54.353-32.825 3.168-63.272 17.482-86.892 41.103-55.612 55.611-55.612 146.098 0 201.709 27.805 27.806 64.33 41.708 100.854 41.708s73.049-13.902 100.854-41.708c35.63-35.63 48.432-85.577 38.405-131.494.115-.133.234-.26.341-.403 2.547-3.407 3.893-7.459 3.893-11.718zm-303.188-152.352c0-23.212 17.008-42.518 39.215-46.13v92.261c-22.207-3.613-39.215-22.919-39.215-46.131zm93.491 0c0 23.212-17.008 42.518-39.215 46.13v-92.261c22.206 3.613 39.215 22.919 39.215 46.131zm91.41 0c0-10.521 6.85-19.467 16.323-22.628v45.256c-9.473-3.161-16.323-12.107-16.323-22.628zm31.383 22.628v-45.256c9.472 3.161 16.323 12.107 16.323 22.628s-6.851 19.467-16.323 22.628zm17.357-52.515 54.487-13.727v87.228l-54.487-13.726c8.565-7.144 14.026-17.888 14.026-29.887s-5.461-22.745-14.026-29.888zm12.699-69.557h41.788v40.299l-77.685 19.571c-1.564.394-3.157.668-4.765.794-20.024 1.574-35.838 18.359-35.838 38.78s15.814 37.206 35.838 38.78c1.608.126 3.201.4 4.765.794l77.685 19.571v37.904h-24.865c-.89-.939-1.793-1.871-2.713-2.791-26.181-26.181-60.748-40.927-97.643-41.736-10.385-15.861-15.91-34.221-15.99-53.3-.228-54.267 45.155-98.666 99.423-98.666zm8.804 379.185-104.778-104.778c14.809-11.775 34.372-16.994 55.935-14.744 25.007 2.608 49.599 14.864 69.246 34.51 3.979 3.979 7.682 8.23 11.073 12.641-2.497 26.092-12.995 51.552-31.476 72.371zm-82.85 42.259c-4.47-3.423-8.779-7.178-12.81-11.208-19.647-19.647-31.903-44.238-34.511-69.245-2.248-21.562 2.97-41.125 14.745-55.935l104.788 104.789c-20.762 18.501-46.164 29.037-72.212 31.599zm114.478-137.322c-.195-.197-.381-.402-.576-.598-22.082-22.082-49.901-35.875-78.332-38.841-26.223-2.732-50.15 3.99-68.213 19.008l-10.934-10.934 77.181-77.18c16.306 6.326 31.265 16.036 44.003 28.774 22.219 22.219 34.503 50.664 36.871 79.771zm-254.646 10.435c0-11.364 1.484-22.498 4.345-33.19 1.005.029 2.01.053 3.007.053 21.792-.001 41.588-6.828 56.992-19.611l10.948 10.948-71.764 71.765c-2.324-9.699-3.528-19.739-3.528-29.965zm32.28-84.812 21.367 21.367c-12.05 9.56-27.344 14.822-44.249 15.22 5.422-13.289 13.117-25.644 22.882-36.587zm47.232-33.426c-.418 16.865-5.674 32.117-15.216 44.144l-21.356-21.356c10.944-9.73 23.293-17.393 36.572-22.788zm-4.509 54.85c13.348-16.083 20.185-36.955 19.558-59.885 10.636-2.829 21.709-4.297 33.009-4.297 10.226 0 20.266 1.204 29.965 3.528l-71.593 71.593zm-66.413 109.59 77.352-77.352 10.934 10.934c-15.018 18.062-21.743 41.986-19.008 68.213 2.965 28.432 16.759 56.251 38.841 78.332.265.265.542.517.808.78-29.24-2.291-57.836-14.588-80.153-36.904-12.738-12.739-22.448-27.698-28.774-44.003zm234.972-129.206h12.44v20.969c-3.497-7.256-7.644-14.274-12.44-20.969z"/><path d="m197.805 331.195h-178.192c-2.491 0-4.518-2.027-4.518-4.518v-40.242h43.047c62.477 0 113.307-50.829 113.307-113.307 0-62.477-50.829-113.307-113.307-113.307h-43.047v-40.243c0-2.491 2.027-4.518 4.518-4.518h45.257c4.159 0 7.53-3.371 7.53-7.53s-3.372-7.53-7.53-7.53h-45.257c-10.796 0-19.578 8.783-19.578 19.578v307.098c0 10.796 8.783 19.578 19.578 19.578h178.192c4.159 0 7.53-3.371 7.53-7.53s-3.372-7.529-7.53-7.529zm-79.403-156.87c0 10.521-6.85 19.467-16.323 22.628v-45.256c9.473 3.161 16.323 12.107 16.323 22.628zm-31.383-22.628v45.256c-9.472-3.161-16.323-12.107-16.323-22.628s6.851-19.467 16.323-22.628zm-17.357 52.515-54.567 13.747v-87.268l54.567 13.747c-8.565 7.144-14.026 17.888-14.026 29.887s5.461 22.744 14.026 29.887zm-11.521-129.331c54.496 0 98.771 44.6 98.242 99.216-.525 54.087-45.406 97.277-99.495 97.277h-41.793v-37.884l77.765-19.591c1.564-.394 3.157-.668 4.765-.794 20.024-1.574 35.838-18.359 35.838-38.78s-15.814-37.206-35.838-38.78c-1.608-.126-3.201-.4-4.765-.794l-77.765-19.591v-40.279z"/></g></g></svg>