<svg id="Capa_1" enable-background="new 0 0 512 512" height="512" viewBox="0 0 512 512" width="512" xmlns="http://www.w3.org/2000/svg"><g><path d="m435.792 322.986h-359.584l-27.295 31.64 45.33 35.273h323.514l42.38-27.731z" fill="#be694f"/><circle cx="48.913" cy="217.185" fill="#665e66" r="33.323"/><path d="m54.159 338.902h403.683l-19.554-27.428-59.255-185.817c-.675-2.118-2.643-3.556-4.866-3.556h-236.334c-2.223 0-4.191 1.438-4.866 3.556l-59.254 185.817z" fill="#c67d66"/><path d="m408.58 313.385h-58.911c-2.114-11.051-4.229-22.102-6.343-33.154h58.217c3.166 9.929 6.332 19.857 9.499 29.786.53 1.667-.713 3.368-2.462 3.368z" fill="#665e66"/><path d="m411.041 310.018c-5.629-17.653-43.701-137.038-51.215-160.602-.341-1.071-1.337-1.798-2.461-1.798h-32.75c8.266 25.922 28.491 89.344 35.719 112.01.035.11.07.221.106.331 5.179 16.239-6.939 32.822-23.984 32.822h-230.001c-1.832 5.745-3.664 11.491-5.496 17.236-.531 1.666.712 3.367 2.461 3.367h305.161c1.748.001 2.991-1.7 2.46-3.366z" fill="#544f57"/><path d="m187.705 180.771h-45.53c3.333-10.452 6.666-20.904 9.999-31.355.342-1.071 1.337-1.798 2.461-1.798h39.414c-2.115 11.051-4.23 22.102-6.344 33.153z" fill="#665e66"/><path d="m233.235 180.771c-15.177 0-30.353 0-45.53 0 2.114-11.051 4.229-22.102 6.343-33.153h41.301c-.704 11.051-1.409 22.102-2.114 33.153z" fill="#f1f1f4"/><path d="m278.765 180.771c-15.177 0-30.353 0-45.53 0 .705-11.051 1.41-22.102 2.114-33.153h41.301c.705 11.051 1.41 22.102 2.115 33.153z" fill="#665e66"/><path d="m324.295 180.771c-15.177 0-30.353 0-45.53 0-.705-11.051-1.41-22.102-2.114-33.153h41.301c2.114 11.051 4.229 22.102 6.343 33.153z" fill="#f1f1f4"/><path d="m369.825 180.771h-45.53c-2.114-11.051-4.229-22.102-6.343-33.153h39.414c1.124 0 2.119.727 2.461 1.798 3.332 10.452 6.665 20.903 9.998 31.355z" fill="#665e66"/><path d="m369.825 180.771c-3.333-10.452-6.666-20.904-9.999-31.355-.341-1.071-1.337-1.798-2.461-1.798h-32.75c2.6 8.153 6.383 20.016 10.572 33.153z" fill="#544f57"/><path d="m181.361 213.925c-16.586 0-33.173 0-49.759 0 3.524-11.051 7.048-22.102 10.572-33.154h45.53c-2.114 11.051-4.228 22.102-6.343 33.154z" fill="#f1f1f4"/><path d="m231.12 213.925c-16.586 0-33.173 0-49.759 0 2.115-11.051 4.229-22.102 6.343-33.153h45.53c-.704 11.05-1.409 22.101-2.114 33.153z" fill="#665e66"/><path d="m280.88 213.925c-16.586 0-33.173 0-49.759 0 .705-11.051 1.41-22.102 2.114-33.154h45.53c.705 11.051 1.41 22.102 2.115 33.154z" fill="#f1f1f4"/><path d="m330.639 213.925c-16.586 0-33.173 0-49.759 0-.705-11.051-1.41-22.102-2.115-33.154h45.53c2.115 11.051 4.229 22.102 6.344 33.154z" fill="#665e66"/><path d="m380.398 213.925c-16.586 0-33.173 0-49.759 0-2.114-11.051-4.229-22.102-6.343-33.153h45.53c3.524 11.05 7.048 22.101 10.572 33.153z" fill="#f1f1f4"/><path d="m345.761 213.925h34.637c-1.762-5.526-3.524-11.051-5.286-16.577s-3.524-11.051-5.286-16.577h-34.637c3.394 10.646 7.056 22.129 10.572 33.154z" fill="#dfdde2"/><path d="m175.018 247.078c-17.996 0-35.992 0-53.988 0 3.524-11.051 7.048-22.102 10.572-33.153h49.759c-2.114 11.051-4.229 22.102-6.343 33.153z" fill="#665e66"/><path d="m229.006 247.078c-17.996 0-35.992 0-53.988 0 2.114-11.051 4.229-22.102 6.343-33.153h49.759c-.704 11.051-1.409 22.102-2.114 33.153z" fill="#f1f1f4"/><path d="m282.994 247.078c-17.996 0-35.992 0-53.988 0 .705-11.051 1.41-22.102 2.114-33.153h49.759c.705 11.051 1.41 22.102 2.115 33.153z" fill="#665e66"/><path d="m336.982 247.078c-17.996 0-35.992 0-53.988 0-.705-11.051-1.41-22.102-2.114-33.153h49.759c2.114 11.051 4.229 22.102 6.343 33.153z" fill="#f1f1f4"/><path d="m390.97 247.078c-17.996 0-35.992 0-53.988 0-2.115-11.051-4.229-22.102-6.343-33.153h49.759c3.524 11.051 7.048 22.102 10.572 33.153z" fill="#665e66"/><path d="m380.398 213.925c-11.546 0-23.091 0-34.637 0 3.89 12.197 7.6 23.833 10.572 33.153h34.637c-3.524-11.051-7.048-22.102-10.572-33.153z" fill="#544f57"/><path d="m168.674 280.232c-19.406 0-38.811 0-58.217 0 3.524-11.051 7.048-22.102 10.572-33.154h53.988c-2.114 11.051-4.228 22.102-6.343 33.154z" fill="#f1f1f4"/><path d="m226.891 280.232c-19.406 0-38.811 0-58.217 0 2.114-11.051 4.229-22.102 6.343-33.153h53.988c-.704 11.05-1.409 22.101-2.114 33.153z" fill="#665e66"/><path d="m285.108 280.232c-19.406 0-38.811 0-58.217 0 .705-11.051 1.41-22.102 2.115-33.153h53.988c.705 11.05 1.41 22.101 2.114 33.153z" fill="#f1f1f4"/><path d="m343.326 280.232c-19.406 0-38.811 0-58.217 0-.705-11.051-1.41-22.102-2.114-33.153h53.988c2.114 11.05 4.228 22.101 6.343 33.153z" fill="#665e66"/><path d="m401.543 280.232c-19.406 0-38.811 0-58.217 0-2.114-11.051-4.229-22.102-6.343-33.153h53.988c3.523 11.05 7.047 22.101 10.572 33.153z" fill="#f1f1f4"/><path d="m401.543 280.232c-1.762-5.526-3.524-11.051-5.286-16.577l-5.286-16.577h-34.637c1.566 4.912 2.928 9.181 4.002 12.55.035.11.07.221.106.331 2.289 7.177 1.198 14.422-2.203 20.272 14.434.001 28.869.001 43.304.001z" fill="#dfdde2"/><path d="m162.331 313.385h-58.911c-1.749 0-2.992-1.701-2.461-3.367 3.166-9.929 6.332-19.858 9.499-29.786h58.217c-2.115 11.051-4.23 22.102-6.344 33.153z" fill="#665e66"/><path d="m106.455 292.782c-1.832 5.745-3.664 11.491-5.496 17.236-.083.26-.123.522-.124.777-.002.409.095.803.27 1.155.011.022.022.044.034.066.127.238.291.456.485.644.176.171.378.318.599.434.044.023.089.045.135.066.321.145.679.226 1.062.226h58.911c1.314-6.868 2.628-13.736 3.942-20.604z" fill="#544f57"/><path d="m224.777 313.385c-20.815 0-41.631 0-62.446 0 2.114-11.051 4.229-22.102 6.343-33.154h58.217c-.704 11.052-1.409 22.103-2.114 33.154z" fill="#f1f1f4"/><path d="m166.273 292.782c-1.314 6.868-2.628 13.736-3.942 20.604h62.446c.438-6.868.876-13.736 1.314-20.604z" fill="#dfdde2"/><path d="m287.223 313.385c-20.815 0-41.631 0-62.446 0 .705-11.051 1.41-22.102 2.114-33.154h58.217c.705 11.052 1.41 22.103 2.115 33.154z" fill="#665e66"/><path d="m226.091 292.782c-.438 6.868-.876 13.736-1.314 20.604h62.446c-.438-6.868-.876-13.736-1.314-20.604z" fill="#544f57"/><path d="m349.669 313.385c-20.815 0-41.631 0-62.446 0-.705-11.051-1.41-22.102-2.114-33.154h58.217c2.114 11.052 4.229 22.103 6.343 33.154z" fill="#f1f1f4"/><path d="m336.457 292.782h-50.548c.438 6.868.876 13.736 1.314 20.604h62.446c-1.418-7.41-2.836-14.82-4.254-22.231-2.76 1.047-5.773 1.627-8.958 1.627z" fill="#dfdde2"/><path d="m94.243 389.899h-90.66c-1.979 0-3.583-1.604-3.583-3.583v-8.3c0-10.335 8.378-18.713 18.713-18.713h60.4c10.335 0 18.713 8.378 18.713 18.713v8.3c0 1.979-1.604 3.583-3.583 3.583z" fill="#8b818e"/><path d="m71.888 278.014h-45.95c-8.449 0-15.298-6.849-15.298-15.298 0-8.449 6.849-15.298 15.298-15.298h45.951c8.449 0 15.298 6.849 15.298 15.298-.001 8.449-6.85 15.298-15.299 15.298z" fill="#8b818e"/><path d="m79.113 359.303h-60.4c3.244-19.705 5.242-39.595 5.98-59.552l1.245-21.737h45.951l1.245 21.737c.738 19.956 2.735 39.847 5.979 59.552z" fill="#665e66"/><path d="m417.757 389.899h90.66c1.979 0 3.583-1.604 3.583-3.583v-8.3c0-10.335-8.378-18.713-18.713-18.713h-60.4c-10.335 0-18.713 8.378-18.713 18.713v8.3c0 1.979 1.604 3.583 3.583 3.583z" fill="#f1f1f4"/><path d="m440.112 260.501h45.951c8.449 0 15.298-6.849 15.298-15.298 0-8.449-6.849-15.298-15.298-15.298h-45.951c-8.449 0-15.298 6.849-15.298 15.298 0 8.448 6.849 15.298 15.298 15.298z" fill="#f1f1f4"/><path d="m432.887 359.303h60.4c-3.244-19.705-5.242-39.595-5.98-59.552l-1.245-39.25h-45.951l-1.245 39.25c-.738 19.956-2.735 39.847-5.979 59.552z" fill="#dfdde2"/><path d="m498.543 229.905h-70.912c-2.787 0-5.046-2.259-5.046-5.046v-39.042c0-2.787 2.259-5.046 5.046-5.046h70.912c2.787 0 5.046 2.259 5.046 5.046v39.042c0 2.787-2.259 5.046-5.046 5.046z" fill="#dfdde2"/><g fill="#c6c1c8"><path d="m468.332 180.771v20.157c0 4.267 3.459 7.726 7.726 7.726s7.726-3.459 7.726-7.726v-20.157z"/><path d="m450.115 208.654c4.267 0 7.726-3.459 7.726-7.726v-20.157h-15.453v20.157c.001 4.267 3.46 7.726 7.727 7.726z"/></g></g></svg>