<?xml version="1.0" encoding="iso-8859-1"?>
<!-- Generator: Adobe Illustrator 19.0.0, SVG Export Plug-In . SVG Version: 6.00 Build 0)  -->
<svg version="1.1" id="Capa_1" xmlns="http://www.w3.org/2000/svg" xmlns:xlink="http://www.w3.org/1999/xlink" x="0px" y="0px"
	 viewBox="0 0 512 512" style="enable-background:new 0 0 512 512;" xml:space="preserve">
<circle style="fill:#49B5CE;" cx="256.001" cy="255.952" r="248.453"/>
<path style="fill:#34A4B7;" d="M192.429,418.141C63.531,289.243,113.322,70.7,283.027,8.982
	C210.766,1.12,135.716,24.871,80.318,80.27c-97.028,97.029-97.028,254.34,0,351.369c70.511,70.512,172.855,89.763,260.768,57.791
	C286.785,483.521,234.057,459.771,192.429,418.141z"/>
<path style="fill:#F0C419;" d="M477.778,143.842c-24.07-0.692-51.608-13.044-74.115-35.551L108.34,403.618
	c22.506,22.506,34.859,50.042,35.551,74.113c93.206,47.139,209.918,31.786,287.794-46.091
	C509.563,353.759,524.918,237.051,477.778,143.842z"/>
<path style="fill:#F7AC16;" d="M150.148,361.809l-41.806,41.807c22.506,22.506,34.859,50.042,35.551,74.113
	c59.954,30.323,131.602,35.554,197.196,11.699C258.157,480.407,188.073,431.001,150.148,361.809z"/>
<path style="fill:#3BBC56;" d="M140.278,455.854c-5.234-17.927-16.037-36.337-31.938-52.237c-15.9-15.902-34.312-26.707-52.24-31.94
	C49.011,236.152,236.09,48.969,371.709,56.051c5.238,17.928,16.056,36.339,31.954,52.239c15.902,15.9,34.312,26.717,52.24,31.954
	C462.981,275.767,275.893,462.953,140.278,455.854z"/>
<path style="fill:#31A845;" d="M122.861,202.672C77.54,261.134,53.569,323.296,56.1,371.677c17.928,5.233,36.34,16.037,52.24,31.94
	c15.9,15.9,26.704,34.31,31.938,52.237c23.629,1.237,50.543-3.848,78.71-14.653C145.137,385.657,108.063,294.371,122.861,202.672z"
	/>
<path style="fill:#E04E4B;" d="M140.278,455.854c-5.234-17.927-16.037-36.337-31.938-52.237L403.663,108.29
	c15.902,15.9,34.312,26.717,52.24,31.954C462.981,275.767,275.893,462.953,140.278,455.854z"/>
<path style="fill:#C44137;" d="M140.278,455.854c23.629,1.237,50.543-3.848,78.71-14.653
	c-28.344-21.318-51.844-48.384-68.841-79.392l-41.806,41.807C124.24,419.517,135.044,437.927,140.278,455.854z"/>
<path style="fill:#D3D3D3;" d="M477.778,143.842c-24.07-0.692-51.608-13.044-74.115-35.551
	c-22.505-22.506-34.859-50.042-35.551-74.113C415.228,58.002,453.904,96.627,477.778,143.842z"/>
<path style="fill:#BABABA;" d="M143.891,477.73L143.891,477.73c-22.919-11.588-44.426-26.943-63.572-46.091
	c-19.15-19.15-34.504-40.653-46.092-63.572l0,0c24.069,0.691,51.609,13.044,74.115,35.551
	C130.846,426.123,143.199,453.658,143.891,477.73z"/>
<path d="M504.235,268.939c-4.103-0.347-7.747,2.73-8.087,6.858c-13.81,168.075-192.629,270.879-345.011,197.151
	c-0.233-2.87-0.677-6.238-1.274-9.445c43.645-0.738,89.908-20.017,127.431-43.096c3.527-2.17,4.629-6.787,2.459-10.315
	c-2.17-3.527-6.789-4.629-10.315-2.458c-5.514,3.391-11.843,7.055-17.778,10.247c-31.292,16.883-69.947,31.035-105.777,30.649
	c-5.653-16.355-15.299-31.802-27.068-44.781l284.982-284.986c14.214,12.838,29.651,21.839,44.782,27.069
	c0.849,77.328-65.808,182.727-158.694,248.302c-3.383,2.388-4.189,7.066-1.802,10.451c2.387,3.382,7.067,4.19,10.45,1.801
	c56.721-40.043,108.995-98.314,139.182-160.521c16.517-34.04,25.356-67.006,25.841-96.051c3.428,0.63,6.731,1.057,9.441,1.273
	c15.523,32.089,23.237,66.268,23.915,100.001c0.082,4.089,3.422,7.348,7.493,7.348c4.212,0,7.584-3.457,7.499-7.648
	C509.131,112.633,396.619,0,256.003,0C187.636,0,123.361,26.624,75.019,74.967C-69.03,219.016,5.636,466.42,205.098,506.869
	c151.635,30.448,293.541-78.24,305.995-229.844C511.433,272.898,508.362,269.276,504.235,268.939z M47.807,377.284
	c39.671,8.577,78.121,46.376,86.871,86.904C98.909,443.327,68.673,413.136,47.807,377.284z M377.323,47.716
	c34.959,20.387,65.552,50.282,86.914,86.91C424.936,126.196,386.152,88.663,377.323,47.716z M256.003,14.997
	c36.93,0,72.582,8.266,104.869,23.897c0.254,3.151,0.681,6.321,1.27,9.497c-32.525,0.52-69.56,11.425-107.827,31.853
	c-3.652,1.951-5.034,6.493-3.083,10.146c1.951,3.653,6.49,5.035,10.146,3.083c37.134-19.823,74.069-30.397,104.747-30.093
	c5.715,16.529,15.339,31.796,27.071,44.775L108.207,393.148c-14.039-12.699-29.507-21.794-44.779-27.073
	c-0.905-82.571,74.917-196.1,175.567-259.575c3.502-2.208,4.551-6.839,2.342-10.343c-2.21-3.501-6.839-4.552-10.343-2.342
	C134.504,154.669,50.013,268.389,48.451,362.094c-3.136-0.583-6.267-1.007-9.38-1.263C-38.224,200.587,78.894,14.997,256.003,14.997
	z"/>
<g>
</g>
<g>
</g>
<g>
</g>
<g>
</g>
<g>
</g>
<g>
</g>
<g>
</g>
<g>
</g>
<g>
</g>
<g>
</g>
<g>
</g>
<g>
</g>
<g>
</g>
<g>
</g>
<g>
</g>
</svg>
