<?xml version="1.0" encoding="iso-8859-1"?>
<!-- Generator: Adobe Illustrator 21.0.0, SVG Export Plug-In . SVG Version: 6.00 Build 0)  -->
<svg xmlns="http://www.w3.org/2000/svg" xmlns:xlink="http://www.w3.org/1999/xlink" version="1.1" id="Capa_1" x="0px" y="0px" viewBox="0 0 512 512" style="enable-background:new 0 0 512 512;" xml:space="preserve" width="512" height="512">
<g>
	<path style="fill:#FF2C5C;" d="M249.5,393h-216c-14.359,0-26-11.641-26-26v-68c0-14.359,11.641-26,26-26h216   c14.359,0,26,11.641,26,26v68C275.5,381.359,263.859,393,249.5,393z"/>
	<path style="fill:#E62753;" d="M206.32,273H76.68c-29.923,0-54.18-24.257-54.18-54.18V113.18C22.5,83.257,46.757,59,76.68,59   H206.32c29.923,0,54.18,24.257,54.18,54.18V218.82C260.5,248.743,236.243,273,206.32,273z"/>
	<path style="fill:#E62753;" d="M249.5,273h-30c14.359,0,26,11.641,26,26v68c0,14.359-11.641,26-26,26h30c14.359,0,26-11.641,26-26   v-68C275.5,284.641,263.859,273,249.5,273z"/>
	<path style="fill:#D6244D;" d="M206.32,59h-30c29.923,0,54.18,24.257,54.18,54.18v105.639c0,29.923-24.257,54.181-54.18,54.181h30   c29.923,0,54.18-24.258,54.18-54.181V113.18C260.5,83.257,236.243,59,206.32,59z"/>
	<g>
		<path style="fill:#685C79;" d="M61.5,423L61.5,423c-8.284,0-15-6.716-15-15v-15h30v15C76.5,416.284,69.784,423,61.5,423z"/>
		<path style="fill:#685C79;" d="M221.5,423L221.5,423c-8.284,0-15-6.716-15-15v-15h30v15C236.5,416.284,229.784,423,221.5,423z"/>
	</g>
	<path style="fill:#B0693C;" d="M489.5,453h-467c-8.284,0-15-6.716-15-15v0c0-8.284,6.716-15,15-15h467c8.284,0,15,6.716,15,15v0   C504.5,446.284,497.784,453,489.5,453z"/>
	<path style="fill:#9C5D35;" d="M489.5,423h-30c8.284,0,15,6.716,15,15c0,8.284-6.716,15-15,15h30c8.284,0,15-6.716,15-15   C504.5,429.716,497.784,423,489.5,423z"/>
	<path style="fill:#FFD659;" d="M489.5,284.993h-180c-8.284,0-15-6.716-15-15v0c0-8.284,6.716-15,15-15h180c8.284,0,15,6.716,15,15   v0C504.5,278.277,497.784,284.993,489.5,284.993z"/>
	<path style="fill:#FFBD54;" d="M489.5,254.993h-30c8.284,0,15,6.716,15,15l0,0c0,8.284-6.716,15-15,15h30c8.284,0,15-6.716,15-15   l0,0C504.5,261.709,497.784,254.993,489.5,254.993z"/>
	<path style="fill:#685C79;" d="M351.5,423L351.5,423c-8.284,0-15-6.716-15-15V285h30v123C366.5,416.284,359.784,423,351.5,423z"/>
	<path style="fill:#685C79;" d="M447.5,423L447.5,423c-8.284,0-15-6.716-15-15V285h30v123C462.5,416.284,455.784,423,447.5,423z"/>
	<path style="fill:#B5FCFF;" d="M359.244,210h-2.489C345.293,210,336,200.708,336,189.245V150h44v39.244   C380,200.708,370.707,210,359.244,210z"/>
	<path style="fill:#FF2C5C;" d="M458.5,255h-52c-2.209,0-4-1.791-4-4v-32c0-2.209,1.791-4,4-4h52c2.209,0,4,1.791,4,4v32   C462.5,253.209,460.709,255,458.5,255z"/>
	<path style="fill:#E62753;" d="M458.5,215h-30c2.209,0,4,1.791,4,4v32c0,2.209-1.791,4-4,4h30c2.209,0,4-1.791,4-4v-32   C462.5,216.791,460.709,215,458.5,215z"/>
	<g>
		<path d="M489.5,415.5h-20.79c0.833-2.348,1.29-4.871,1.29-7.5v-80c0-4.143-3.358-7.5-7.5-7.5s-7.5,3.357-7.5,7.5v80    c0,4.136-3.364,7.5-7.5,7.5s-7.5-3.364-7.5-7.5V292.5h15v3.5c0,4.143,3.358,7.5,7.5,7.5s7.5-3.357,7.5-7.5v-3.507h19.5    c12.407,0,22.5-10.094,22.5-22.5s-10.093-22.5-22.5-22.5H470V219c0-6.341-5.159-11.5-11.5-11.5h-52c-6.341,0-11.5,5.159-11.5,11.5    v28.493h-29.704v-30.652c12.681-2.779,22.204-14.094,22.204-27.597V150c0-4.143-3.358-7.5-7.5-7.5h-44c-4.142,0-7.5,3.357-7.5,7.5    v39.244c0,13.357,9.32,24.572,21.796,27.502v30.747H309.5c-12.407,0-22.5,10.094-22.5,22.5s10.093,22.5,22.5,22.5H329V408    c0,2.629,0.458,5.152,1.29,7.5h-87.58c0.833-2.348,1.29-4.871,1.29-7.5v-7.5h5.5c18.472,0,33.5-15.028,33.5-33.5v-68    c0-18.472-15.028-33.5-33.5-33.5h-2.933C259.678,254.181,268,237.458,268,218.819V113.181C268,79.17,240.331,51.5,206.32,51.5    H76.68c-10.092,0-20.107,2.493-28.962,7.211c-3.656,1.947-5.041,6.489-3.094,10.146c1.948,3.656,6.491,5.042,10.146,3.093    c6.693-3.564,14.27-5.449,21.911-5.449h129.64c25.74,0,46.68,20.94,46.68,46.681v105.639c0,25.74-20.94,46.681-46.68,46.681H76.68    C50.94,265.5,30,244.56,30,218.819V113.181c0-7.641,1.884-15.217,5.449-21.909c1.947-3.655,0.562-8.197-3.094-10.145    c-3.655-1.947-8.198-0.563-10.146,3.094C17.493,93.075,15,103.09,15,113.181v105.639c0,18.639,8.322,35.361,21.433,46.681H33.5    C15.028,265.5,0,280.528,0,299v68c0,18.472,15.028,33.5,33.5,33.5H39v7.5c0,2.629,0.458,5.152,1.29,7.5H22.5    C10.093,415.5,0,425.594,0,438s10.093,22.5,22.5,22.5h467c12.407,0,22.5-10.094,22.5-22.5S501.907,415.5,489.5,415.5z     M343.5,189.244V157.5h29v31.744c0,7.31-5.946,13.256-13.255,13.256h-2.489C349.446,202.5,343.5,196.554,343.5,189.244z     M410,222.5h45v24.993h-45V222.5z M302,269.993c0-4.136,3.364-7.5,7.5-7.5h180c4.136,0,7.5,3.364,7.5,7.5s-3.364,7.5-7.5,7.5h-180    C305.364,277.493,302,274.129,302,269.993z M425,292.493V408c0,2.629,0.458,5.152,1.29,7.5h-53.58    c0.833-2.348,1.29-4.871,1.29-7.5V292.493H425z M344,408V292.5h15V408c0,4.136-3.364,7.5-7.5,7.5S344,412.136,344,408z M229,408    c0,4.136-3.364,7.5-7.5,7.5s-7.5-3.364-7.5-7.5v-7.5h15V408z M15,367v-68c0-10.201,8.299-18.5,18.5-18.5h216    c10.201,0,18.5,8.299,18.5,18.5v68c0,10.201-8.299,18.5-18.5,18.5h-57.125c-4.142,0-7.5,3.357-7.5,7.5s3.358,7.5,7.5,7.5H199v7.5    c0,2.629,0.458,5.152,1.29,7.5H82.71c0.833-2.348,1.29-4.871,1.29-7.5v-7.5h76.219c4.142,0,7.5-3.357,7.5-7.5s-3.358-7.5-7.5-7.5    H33.5C23.299,385.5,15,377.201,15,367z M54,408v-7.5h15v7.5c0,4.136-3.364,7.5-7.5,7.5S54,412.136,54,408z M489.5,445.5h-467    c-4.136,0-7.5-3.364-7.5-7.5s3.364-7.5,7.5-7.5h467c4.136,0,7.5,3.364,7.5,7.5S493.636,445.5,489.5,445.5z"/>
		<path d="M141.5,143.5c-4.142,0-7.5,3.357-7.5,7.5v7.5h-7.5c-4.142,0-7.5,3.357-7.5,7.5s3.358,7.5,7.5,7.5h7.5v7.5    c0,4.143,3.358,7.5,7.5,7.5s7.5-3.357,7.5-7.5v-7.5h7.5c4.142,0,7.5-3.357,7.5-7.5s-3.358-7.5-7.5-7.5H149V151    C149,146.857,145.642,143.5,141.5,143.5z"/>
		<path d="M79.5,84.5c-4.142,0-7.5,3.357-7.5,7.5v7.5h-7.5c-4.142,0-7.5,3.357-7.5,7.5s3.358,7.5,7.5,7.5H72v7.5    c0,4.143,3.358,7.5,7.5,7.5s7.5-3.357,7.5-7.5v-7.5h7.5c4.142,0,7.5-3.357,7.5-7.5s-3.358-7.5-7.5-7.5H87V92    C87,87.857,83.642,84.5,79.5,84.5z"/>
		<path d="M202.5,84.5c-4.142,0-7.5,3.357-7.5,7.5v7.5h-7.5c-4.142,0-7.5,3.357-7.5,7.5s3.358,7.5,7.5,7.5h7.5v7.5    c0,4.143,3.358,7.5,7.5,7.5s7.5-3.357,7.5-7.5v-7.5h7.5c4.142,0,7.5-3.357,7.5-7.5s-3.358-7.5-7.5-7.5H210V92    C210,87.857,206.642,84.5,202.5,84.5z"/>
		<path d="M64.5,230.5H72v7.5c0,4.143,3.358,7.5,7.5,7.5s7.5-3.357,7.5-7.5v-7.5h7.5c4.142,0,7.5-3.357,7.5-7.5s-3.358-7.5-7.5-7.5    H87V208c0-4.143-3.358-7.5-7.5-7.5S72,203.857,72,208v7.5h-7.5c-4.142,0-7.5,3.357-7.5,7.5S60.358,230.5,64.5,230.5z"/>
		<path d="M187.5,230.5h7.5v7.5c0,4.143,3.358,7.5,7.5,7.5s7.5-3.357,7.5-7.5v-7.5h7.5c4.142,0,7.5-3.357,7.5-7.5    s-3.358-7.5-7.5-7.5H210V208c0-4.143-3.358-7.5-7.5-7.5s-7.5,3.357-7.5,7.5v7.5h-7.5c-4.142,0-7.5,3.357-7.5,7.5    S183.358,230.5,187.5,230.5z"/>
	</g>
</g>















</svg>
