<?xml version="1.0" encoding="iso-8859-1"?>
<!-- Generator: Adobe Illustrator 19.0.0, SVG Export Plug-In . SVG Version: 6.00 Build 0)  -->
<svg version="1.1" id="Capa_1" xmlns="http://www.w3.org/2000/svg" xmlns:xlink="http://www.w3.org/1999/xlink" x="0px" y="0px"
	 viewBox="0 0 512 512" style="enable-background:new 0 0 512 512;" xml:space="preserve">
<rect x="7.503" y="421.725" style="fill:#D8D7DA;" width="496.994" height="82.779"/>
<rect x="7.503" y="421.725" style="fill:#ACABB1;" width="64.499" height="82.779"/>
<polygon style="fill:#FF456D;" points="426.904,190.059 384.696,147.849 384.733,147.812 310.603,73.683 310.566,73.721 
	256.074,19.229 179.013,19.229 179.013,61.162 238.705,61.162 280.915,103.372 190.009,194.277 190.009,194.277 156.94,227.346 
	139.824,210.23 110.173,239.881 156.94,286.649 219.659,223.928 307.865,310.159 307.865,346.598 349.799,346.598 349.799,292.79 
	294.777,237.767 355.044,177.501 409.535,231.992 486.597,231.992 486.597,190.059 "/>
<g>
	<rect x="179.008" y="19.229" style="fill:#FF0C38;" width="21.964" height="41.934"/>
	<polygon style="fill:#FF0C38;" points="132.135,239.881 150.806,221.211 139.824,210.23 110.173,239.881 156.94,286.649 
		167.922,275.667 	"/>
	<polygon style="fill:#FF0C38;" points="260.669,61.162 238.705,61.162 280.915,103.372 190.009,194.277 190.009,194.277 
		167.922,216.364 178.903,227.346 211.973,194.277 211.973,194.277 302.877,103.372 	"/>
	<polygon style="fill:#FF0C38;" points="241.623,223.928 230.766,234.785 307.865,310.159 307.865,346.598 329.829,346.598 
		329.829,310.159 	"/>
	<polygon style="fill:#FF0C38;" points="366.025,188.482 409.535,231.992 431.498,231.992 377.007,177.501 	"/>
</g>
<g>
	<path style="fill:#45A2FF;" d="M256.074,44.551c6.993,0,13.323-2.834,17.906-7.417l-17.906-17.906h-25.323
		C230.752,33.215,242.089,44.551,256.074,44.551z"/>
	<path style="fill:#45A2FF;" d="M156.942,261.455c-6.961,0-13.264,2.81-17.841,7.355l17.839,17.839l17.841-17.842
		C170.204,264.263,163.902,261.455,156.942,261.455z"/>
	<path style="fill:#45A2FF;" d="M331.893,274.884c-4.583,4.583-7.417,10.913-7.417,17.906c0,13.986,11.337,25.323,25.323,25.323
		V292.79L331.893,274.884z"/>
	<path style="fill:#45A2FF;" d="M409.535,206.67c-6.993,0-13.323,2.834-17.906,7.417l17.906,17.906h25.323
		C434.858,218.006,423.52,206.67,409.535,206.67z"/>
</g>
<polygon style="fill:#FFC477;" points="366.062,369.085 349.799,369.085 349.799,346.598 307.865,346.598 307.865,391.571 
	378.317,391.571 378.317,381.34 "/>
<rect x="307.866" y="346.596" style="fill:#FFA733;" width="22.556" height="44.972"/>
<polygon style="fill:#FFC477;" points="82.774,235.479 94.273,223.98 110.173,239.881 139.824,210.23 108.024,178.429 
	58.207,228.245 65.442,235.479 "/>
<polygon style="fill:#FFA733;" points="78.701,228.245 118.271,188.676 108.024,178.429 58.207,228.245 65.442,235.479 
	82.774,235.479 84.355,233.898 "/>
<circle style="fill:#FFC477;" cx="390.435" cy="67.981" r="60.479"/>
<path style="fill:#FFA733;" d="M368.931,110.748c-23.62-23.62-23.62-61.914,0-85.533c9.094-9.094,20.366-14.672,32.135-16.763
	c-18.799-3.34-38.873,2.237-53.398,16.763c-23.62,23.62-23.62,61.914,0,85.533c14.526,14.526,34.599,20.103,53.398,16.763
	C389.295,125.42,378.025,119.842,368.931,110.748z"/>
<path style="fill:#45A2FF;" d="M433.201,110.748L383.984,61.53c-3.081-3.081-8.075-3.081-11.156,0l-3.965,3.965
	c-6.907,6.907-18.107,6.907-25.014,0l-12.117-12.116c2.709-10.935,8.511-21.262,17.405-29.588
	c23.415-21.919,60.458-21.544,83.45,0.818C456.819,48.175,457.023,86.926,433.201,110.748z"/>
<g>
	<path style="fill:#2488FF;" d="M364.222,65.494l-12.116-12.115c2.709-10.935,8.511-21.261,17.405-29.588
		c8.895-8.327,19.758-13.428,31.069-15.337c-18.046-3.031-37.247,2.048-51.441,15.337c-8.894,8.326-14.696,18.653-17.405,29.588
		l12.116,12.115c6.181,6.181,15.79,6.813,22.694,1.932C365.731,66.853,364.949,66.22,364.222,65.494z"/>
	<path style="fill:#2488FF;" d="M404.356,61.53c-3.081-3.081-8.075-3.081-11.156,0l-3.965,3.965
		c-0.217,0.218-0.451,0.408-0.677,0.612l44.641,44.641c3.512-3.512,6.487-7.354,8.955-11.419L404.356,61.53z"/>
</g>
<g>
	<circle style="fill:#ADDFBB;" cx="297.777" cy="406.645" r="15.07"/>
	<circle style="fill:#ADDFBB;" cx="327.926" cy="406.645" r="15.07"/>
	<circle style="fill:#ADDFBB;" cx="358.076" cy="406.645" r="15.07"/>
	<circle style="fill:#ADDFBB;" cx="388.225" cy="406.645" r="15.07"/>
	<circle style="fill:#ADDFBB;" cx="40.478" cy="224.657" r="15.07"/>
	<circle style="fill:#ADDFBB;" cx="61.796" cy="203.338" r="15.07"/>
	<circle style="fill:#ADDFBB;" cx="83.119" cy="182.018" r="15.07"/>
	<circle style="fill:#ADDFBB;" cx="104.439" cy="160.698" r="15.07"/>
</g>
<g>
	<rect x="75.999" y="472.914" style="fill:#1D1D1F;" width="15" height="15"/>
	<rect x="50.999" y="472.914" style="fill:#1D1D1F;" width="15" height="15"/>
	<rect x="26" y="472.914" style="fill:#1D1D1F;" width="15" height="15"/>
	<polygon style="fill:#1D1D1F;" points="419.886,414.223 419.886,429.223 496.997,429.223 496.997,497 15.003,497 15.003,429.223 
		266.108,429.223 266.108,414.223 0.003,414.223 0.003,512 511.997,512 511.997,414.223 	"/>
	<rect x="151.648" y="455.615" style="fill:#1D1D1F;" width="121.349" height="15"/>
	<rect x="105.859" y="334.576" style="fill:#1D1D1F;" width="15" height="15"/>
	<rect x="155.858" y="334.576" style="fill:#1D1D1F;" width="86.679" height="15"/>
	<rect x="130.858" y="334.576" style="fill:#1D1D1F;" width="15" height="15"/>
	<rect x="139.738" y="376.466" style="fill:#1D1D1F;" width="101.969" height="15"/>
	<path style="fill:#1D1D1F;" d="M270.309,103.372L156.94,216.739l-38.419-38.42c5.169-4.14,8.487-10.499,8.487-17.621
		c0-12.448-10.127-22.575-22.575-22.575c-12.038,0-21.904,9.471-22.541,21.354c-11.478,0.615-20.704,9.842-21.319,21.319
		c-11.477,0.615-20.704,9.842-21.319,21.319c-11.882,0.637-21.353,10.503-21.353,22.54c0,12.448,10.127,22.575,22.575,22.575
		c7.123,0,13.481-3.319,17.622-8.488l4.237,4.237H85.88l8.393-8.393l62.667,62.668l62.779-62.78l80.646,78.841v70.911
		c-0.851-0.098-1.716-0.153-2.593-0.153c-12.448,0-22.575,10.127-22.575,22.575c0,12.447,10.127,22.574,22.575,22.574
		c5.789,0,11.075-2.192,15.075-5.788c4,3.596,9.286,5.788,15.075,5.788c5.789,0,11.075-2.192,15.075-5.788
		c4,3.596,9.286,5.788,15.075,5.788s11.075-2.192,15.075-5.788c4,3.596,9.286,5.788,15.075,5.788
		c12.448,0,22.575-10.127,22.575-22.574c0-12.448-10.127-22.575-22.575-22.575c-0.813,0-1.615,0.045-2.406,0.13v-5.97
		l-16.649-16.648h-11.869v-71.901l-51.916-51.915l49.661-49.66l51.384,51.384h87.668V182.56h-64.086l-47.01-47.01
		c2.443,0.267,4.921,0.415,7.434,0.415c37.485,0,67.981-30.497,67.981-67.981S427.919,0,390.433,0s-67.981,30.496-67.981,67.98
		c0,2.513,0.148,4.992,0.415,7.435l-63.686-63.686h-87.668v56.933h64.086L270.309,103.372z M337.497,69.75l1.048,1.048
		c9.821,9.821,25.801,9.818,35.621,0l3.964-3.965c0.152-0.152,0.398-0.152,0.55,0l43.52,43.521
		c-8.857,6.657-19.859,10.608-31.767,10.608C361.814,120.963,338.436,98.147,337.497,69.75z M390.433,15
		c29.214,0,52.981,23.768,52.981,52.98c0,11.908-3.951,22.91-10.608,31.768l-43.521-43.521c-5.999-5.998-15.762-5.998-21.762,0
		l-3.965,3.965c-3.972,3.973-10.436,3.973-14.408,0l-8.967-8.966C347.213,30.201,367.076,15,390.433,15z M104.435,153.124
		c4.177,0,7.575,3.398,7.575,7.575s-3.398,7.575-7.575,7.575c-4.177,0-7.575-3.398-7.575-7.575S100.258,153.124,104.435,153.124z
		 M83.116,174.443c4.177,0,7.575,3.398,7.575,7.575c0,4.177-3.398,7.574-7.575,7.574c-4.177,0-7.575-3.397-7.575-7.574
		C75.541,177.841,78.939,174.443,83.116,174.443z M61.796,195.763c4.177,0,7.575,3.397,7.575,7.574c0,4.177-3.398,7.575-7.575,7.575
		c-4.177,0-7.575-3.398-7.575-7.575C54.221,199.16,57.62,195.763,61.796,195.763z M40.478,232.23c-4.177,0-7.575-3.398-7.575-7.575
		s3.398-7.574,7.575-7.574s7.575,3.397,7.575,7.574S44.654,232.23,40.478,232.23z M94.272,213.375l-14.605,14.605H69.08
		l38.944-38.945l21.194,21.195l-19.045,19.044L94.272,213.375z M139.824,220.836l9.616,9.616l0.002,24.368
		c-3.439,0.801-6.712,2.152-9.715,4.01l-18.949-18.949L139.824,220.836z M150.916,270.019c1.911-0.686,3.938-1.064,6.027-1.064
		c2.087,0,4.113,0.377,6.023,1.062l-6.026,6.026L150.916,270.019z M342.299,324.737v14.36h-26.933V315.17l7.801-3.232
		C327.726,318.263,334.477,322.901,342.299,324.737z M297.774,414.223c-4.177,0-7.575-3.397-7.575-7.574
		c0-4.177,3.398-7.575,7.575-7.575c4.177,0,7.575,3.398,7.575,7.575C305.348,410.826,301.95,414.223,297.774,414.223z
		 M327.923,414.223c-4.177,0-7.575-3.397-7.575-7.574c0-4.177,3.398-7.575,7.575-7.575c4.177,0,7.575,3.398,7.575,7.575
		C335.498,410.826,332.1,414.223,327.923,414.223z M358.073,414.223c-4.177,0-7.575-3.397-7.575-7.574
		c0-4.177,3.398-7.575,7.575-7.575c4.177,0,7.575,3.398,7.575,7.575C365.648,410.826,362.249,414.223,358.073,414.223z
		 M395.796,406.648c0,4.177-3.398,7.574-7.575,7.574c-4.177,0-7.575-3.397-7.575-7.574c0-4.177,3.398-7.575,7.575-7.575
		C392.398,399.073,395.796,402.472,395.796,406.648z M362.955,376.585l7.486,7.486h-55.074v-29.974H342.3v22.487h20.655V376.585z
		 M342.299,308.935c-6.086-2.839-10.323-8.999-10.323-16.146c0-2.124,0.388-4.183,1.096-6.12l9.227,9.227V308.935z M284.17,237.768
		l37.729,37.728c-3.201,5.143-4.922,11.084-4.922,17.294c0,1.804,0.152,3.573,0.434,5.298l-7.842,3.248l-89.969-87.955
		l-45.446,45.446c-3.003-1.856-6.275-3.207-9.712-4.008l-0.002-24.368L291.52,103.371l-43.968-43.968l3.224-7.784
		c1.726,0.281,3.494,0.434,5.298,0.434c6.209,0,12.151-1.72,17.295-4.922l144.688,144.687l-3.225,7.785
		c-1.726-0.281-3.494-0.434-5.298-0.434c-6.209,0-12.151,1.72-17.294,4.922l-37.197-37.197L284.17,237.768z M403.414,215.265
		c1.937-0.707,3.996-1.096,6.12-1.096c7.146,0,13.307,4.237,16.146,10.322h-13.039L403.414,215.265z M479.097,224.491h-37.615
		c-1.836-7.823-6.475-14.572-12.799-19.132l3.231-7.801h47.181v26.933H479.097z M262.195,35.956
		c-1.937,0.708-3.997,1.096-6.12,1.096c-7.146,0-13.307-4.237-16.146-10.323h13.039L262.195,35.956z M186.513,26.729h37.615
		c1.836,7.823,6.475,14.573,12.799,19.133l-3.231,7.801h-47.181L186.513,26.729L186.513,26.729z"/>
	<rect x="39.774" y="52.649" style="fill:#1D1D1F;" width="15" height="15"/>
	<rect x="64.773" y="52.649" style="fill:#1D1D1F;" width="86.679" height="15"/>
	<rect x="14.774" y="52.649" style="fill:#1D1D1F;" width="15" height="15"/>
	<rect x="135.018" y="95.869" style="fill:#1D1D1F;" width="59.999" height="15"/>
	<rect x="61.796" y="95.869" style="fill:#1D1D1F;" width="58.219" height="15"/>
	<rect x="250.497" y="334.576" style="fill:#1D1D1F;" width="15" height="15"/>
</g>
<g>
	<path style="fill:#FFFFFF;" d="M433.359,73.96l-14.858-2.059c0.18-1.294,0.271-2.612,0.271-3.917c0-4.518-1.088-9.013-3.145-12.999
		l13.329-6.879c3.15,6.103,4.815,12.976,4.816,19.877C433.771,69.976,433.633,71.986,433.359,73.96z M411.058,48.546
		c-0.19-0.202-0.384-0.401-0.581-0.598c-2.633-2.635-5.685-4.688-9.078-6.108l5.796-13.836c5.2,2.179,9.872,5.319,13.884,9.334
		c0.308,0.307,0.615,0.623,0.916,0.944L411.058,48.546z M382.042,40.908l-4.428-14.332c5.768-1.781,11.894-2.344,17.92-1.633
		l-1.752,14.896C389.827,39.377,385.817,39.742,382.042,40.908z"/>
	<path style="fill:#FFFFFF;" d="M275.293,225.244l-10.606-10.607l10.606-10.606l10.606,10.607L275.293,225.244z M292.971,207.567
		l-10.606-10.607l10.606-10.606l10.606,10.607L292.971,207.567z M310.647,189.89l-10.606-10.607l32.545-32.545l10.606,10.607
		L310.647,189.89z"/>
	<path style="fill:#FFFFFF;" d="M485.279,458.462H383.21v-15h102.07L485.279,458.462L485.279,458.462z M373.21,458.462h-15v-15h15
		V458.462z M348.21,458.462h-15v-15h15V458.462z"/>
</g>
<g>
</g>
<g>
</g>
<g>
</g>
<g>
</g>
<g>
</g>
<g>
</g>
<g>
</g>
<g>
</g>
<g>
</g>
<g>
</g>
<g>
</g>
<g>
</g>
<g>
</g>
<g>
</g>
<g>
</g>
</svg>
