<svg id="_x33_0" enable-background="new 0 0 64 64" height="512" viewBox="0 0 64 64" width="512" xmlns="http://www.w3.org/2000/svg"><g><g><g><path d="m30 11v7h-10v-4h4c0-1.42-.3-2.78-.84-4h.01 5.83c.55 0 1 .45 1 1z" fill="#dfb28b"/></g><g><path d="m30 18v5c0 .55-.45 1-1 1h-8c-.55 0-1-.45-1-1v-5z" fill="#dfb28b"/></g><g><path d="m14 4c-2.52 1.89-4 4.85-4 8v2h-6c0-2.76 1.12-5.26 2.93-7.07s4.31-2.93 7.07-2.93z" fill="#e6e9ed"/></g><g><path d="m24 14h-4-2v-2c0-3.15-1.48-6.11-4-8 2.76 0 5.26 1.12 7.07 2.93.88.88 1.59 1.92 2.09 3.07.54 1.22.84 2.58.84 4z" fill="#e6e9ed"/></g><g><path d="m18 12v2h-4-4v-2c0-3.15 1.48-6.11 4-8 2.52 1.89 4 4.85 4 8z" fill="#ff826e"/></g><g><path d="m29.22 54.88.18.18.6.6c1.1 1.1 2.5 1.85 4 2.17.54.11 1.1.17 1.66.17h2.34 4 4 4 4c2 0 3.82-.73 5.22-1.94 1.47-1.26 2.47-3.04 2.72-5.06.04-.33.06-.66.06-1v4c0 4.42-3.58 8-8 8h-18.34c-2.12 0-4.16-.84-5.66-2.34l-.78-.78c-.56-.56-1.32-.88-2.12-.88h-17.1c-4.42 0-8-3.58-8-8v-4c0 .34.02.67.06 1 .25 2.02 1.25 3.8 2.72 5.06 1.4 1.21 3.22 1.94 5.22 1.94h4 4 4 4 1.1c.8 0 1.56.32 2.12.88z" fill="#aab2bd"/></g><g><g><path d="m61.94 35c-.25-2.02-1.25-3.8-2.72-5.06-1.4-1.21-3.22-1.94-5.22-1.94h-4v4h4c1.02 0 1.95.38 2.66 1.01.59.53 1.02 1.22 1.22 2.02.08.31.12 14.97.12 14.97 0 .35-.04.68-.13 1-.2.78-.63 1.47-1.21 1.99-.71.63-1.64 1.01-2.66 1.01h-18.34c-.58 0-1.15-.13-1.66-.36-.43-.2-.83-.47-1.17-.81l-1.07-1.07c-.22-.22-.45-.41-.69-.58v-.01c-1.03-.76-2.27-1.17-3.56-1.17h-17.51c-1.02 0-1.95-.38-2.66-1.01-.58-.52-1.01-1.21-1.21-1.99-.09-.32-.13-11-.13-11 0-.35.04-.68.13-1 .2-.78.63-1.47 1.21-1.99.71-.63 1.64-1.01 2.66-1.01h24v-4h-24c-2 0-3.82.73-5.22 1.94-1.47 1.26-2.47 3.04-2.72 5.06-.04.33-.06.66-.06 1v10c0 .34.02.67.06 1 .25 2.02 1.25 3.8 2.72 5.06 1.4 1.21 3.22 1.94 5.22 1.94h17.1c.8 0 1.56.32 2.12.88l.18.18.6.6c1.1 1.1 2.5 1.85 4 2.17.54.11 1.1.17 1.66.17h18.34c2 0 3.82-.73 5.22-1.94 1.47-1.26 2.47-3.04 2.72-5.06.04-.33.06-.66.06-1v-14c0-.34-.02-.67-.06-1z" fill="#ccd1d9"/></g><g><path d="m38 28h8v4h-8z" fill="#ccd1d9"/></g></g><g><path d="m6 39v-3c0-.35.04-.68.13-1 .2-.78.63-1.47 1.21-1.99.71-.63 1.64-1.01 2.66-1.01h4 4 4 4 4 4v3c0 .55.45 1 1 1h2c.55 0 1-.45 1-1v-3h8v3c0 .55.45 1 1 1h2c.55 0 1-.45 1-1v-3h4c1.02 0 1.95.38 2.66 1.01.59.53 1.02 1.22 1.22 2.02.08.31.12.64.12.97v3 4 4 3c0 .35-.04.68-.13 1-.2.78-.63 1.47-1.21 1.99-.71.63-1.64 1.01-2.66 1.01h-4-4-4-4-2.34c-.58 0-1.15-.13-1.66-.36-.43-.2-.83-.47-1.17-.81l-1.07-1.07c-.22-.22-.45-.41-.69-.58v-.01c-1.03-.76-2.27-1.17-3.56-1.17h-1.51-4-4-4-4c-1.02 0-1.95-.38-2.66-1.01-.58-.52-1.01-1.21-1.21-1.99-.09-.32-.13-.65-.13-1v-3z" fill="#69d6f4"/></g><g><path d="m50 32v3c0 .55-.45 1-1 1h-2c-.55 0-1-.45-1-1v-3-4-4-3c0-.55.45-1 1-1h2c.55 0 1 .45 1 1v7z" fill="#e6e9ed"/></g><g><path d="m38 32v3c0 .55-.45 1-1 1h-2c-.55 0-1-.45-1-1v-3-4-7c0-.55.45-1 1-1h2c.55 0 1 .45 1 1v3 4z" fill="#e6e9ed"/></g></g><g><path d="m54 27h-3v-6c0-1.103-.897-2-2-2h-2c-1.103 0-2 .897-2 2v2h-6v-2c0-1.103-.897-2-2-2h-2c-1.103 0-2 .897-2 2v6h-23c-4.962 0-9 4.038-9 9v14c0 4.963 4.037 9 9 9l17.102.001c.534 0 1.036.208 1.414.585l.778.777c1.701 1.7 3.962 2.637 6.368 2.637h18.338c4.962 0 9-4.037 9-9v-18c0-4.962-4.038-9-9-9zm-51 17h2v2h-2zm24-13v-2h2v2zm-2 0h-2v-2h2zm-4 0h-2v-2h2zm-4 0h-2v-2h2zm-4 0h-2v-2h2zm-4 .101c-.528.108-1.014.317-1.467.577l-1.305-1.565c.823-.53 1.763-.888 2.772-1.033zm-4 6.899h-2v-2h2zm0 2v2h-2v-2zm.424 8c.159.362.369.692.605 1.004l-1.312 1.574c-.643-.741-1.134-1.615-1.422-2.578zm2.109 2.323c.453.26.939.469 1.467.576v2.021c-1.009-.145-1.948-.503-2.771-1.032zm3.467.677h2v2h-2zm4 0h2v2h-2zm4 0h2v2.001h-2zm4 0h2v2.001h-2zm4 0h.515c.815 0 1.589.215 2.292.58l-.82 1.913c-.575-.31-1.213-.492-1.885-.492h-.102zm4.437 1.851.684.684c.268.268.566.492.878.689v2.254c-.847-.348-1.626-.862-2.293-1.529l-.118-.118zm3.563 2.085c.218.028.434.064.657.064h1.343v2h-1.339c-.222 0-.442-.012-.661-.032zm4 .064h2v2h-2zm4 0h2v2h-2zm4 0h2v2h-2zm4 0h2v2h-2zm4-.101c.528-.108 1.013-.317 1.467-.576l1.304 1.565c-.823.529-1.762.887-2.771 1.032zm0-25.819c1.009.145 1.949.504 2.772 1.032l-1.305 1.565c-.453-.26-.939-.469-1.467-.577zm4.283 25.498-1.312-1.574c.236-.311.446-.642.605-1.004h2.129c-.288.963-.779 1.837-1.422 2.578zm-.283-4.578v-2h2v2zm2-4h-2v-2h2zm0-4h-2v-2h2zm0-4h-2v-2h2zm-.295-4h-2.129c-.159-.362-.369-.692-.605-1.004l1.312-1.574c.643.741 1.134 1.615 1.422 2.578zm-7.705-5v2h-2v-2zm-6-8h2l.001 14h-2.001zm-2 10h-6v-2h6zm0-6v2h-6v-2zm-10-4h2l.001 14h-2.001zm2 16c1.103 0 2-.897 2-2v-2h6v2c0 1.103.897 2 2 2h2c1.103 0 2-.897 2-2v-2h3c1.654 0 3 1.346 3 3v14c0 1.654-1.346 3-3 3h-18.343c-.79 0-1.563-.32-2.122-.879l-1.07-1.07c-1.322-1.322-3.08-2.051-4.95-2.051h-17.515c-1.654 0-3-1.346-3-3v-10c0-1.654 1.346-3 3-3h23v2c0 1.103.897 2 2 2zm-4-6h-2v-2h2zm-28.283.422 1.312 1.574c-.237.312-.446.642-.605 1.004h-2.129c.288-.963.779-1.837 1.422-2.578zm49.283 29.578h-18.339c-1.872 0-3.631-.729-4.954-2.051l-.778-.777c-.755-.755-1.759-1.171-2.828-1.171l-17.101-.001c-3.173 0-5.855-2.125-6.711-5.024 1.649 1.85 4.042 3.024 6.711 3.024l17.102.001c.534 0 1.036.208 1.414.585l.778.777c1.701 1.7 3.962 2.637 6.368 2.637h18.338c2.668 0 5.062-1.174 6.711-3.025-.855 2.9-3.538 5.025-6.711 5.025z"/><path d="m9 37h6v2h-6z"/><path d="m19 43h8v2h-8z"/><path d="m41 48h8v2h-8z"/><path d="m43 40h10v2h-10z"/><path d="m13 25h2v-10h4v8c0 1.103.897 2 2 2h8c1.103 0 2-.897 2-2v-12c0-1.103-.897-2-2-2h-5.214c-1.68-3.275-4.948-5.601-8.786-5.949v-2.051h-2v2.051c-5.598.507-10 5.221-10 10.949v1h10zm1-19.692c1.886 1.695 3 4.138 3 6.692v1h-6v-1c0-2.554 1.114-4.996 3-6.692zm7 17.692v-4h8v4zm8-12v6h-8v-2h4v-1c0-1.041-.155-2.045-.426-3zm-6.055 2h-3.945v-1c0-2.369-.788-4.66-2.17-6.535 3.274 1.089 5.723 4.003 6.115 7.535zm-11.762-7.539c-1.387 1.877-2.183 4.166-2.183 6.539v1h-3.945c.393-3.537 2.847-6.453 6.128-7.539z"/></g></g></svg>