<svg id="Layer_1" enable-background="new 0 0 256 256" height="512" viewBox="0 0 256 256" width="512" xmlns="http://www.w3.org/2000/svg"><g><path d="m93.788 92.357h68.425v89.647h-68.425z" fill="#cecece"/><g><path d="m93.788 92.357h14.667v89.647h-14.667z" fill="#afafaf"/></g><g><path d="m147.546 92.357h14.667v89.647h-14.667z" fill="#e2e2e2"/></g><path d="m196.869 234.97h-137.738c-12.886 0-18.061-16.627-7.452-23.941l42.108-29.024h68.425l42.108 29.024c10.61 7.313 5.435 23.941-7.451 23.941z" fill="#9e9e9e"/><path d="m204.32 211.029-42.108-29.024h-14.667l42.108 29.024c10.61 7.313 5.434 23.941-7.452 23.941h14.667c12.887 0 18.062-16.628 7.452-23.941z" fill="#b7b7b7"/><g><path d="m66.346 211.029 42.108-29.024h-14.666l-42.108 29.024c-10.61 7.313-5.434 23.941 7.452 23.941h14.667c-12.887 0-18.062-16.628-7.453-23.941z" fill="#707070"/></g><path d="m150.628 209.538h-30.222v25.432h30.222c6.398 0 11.584-5.186 11.584-11.584v-2.264c0-6.398-5.186-11.584-11.584-11.584z" fill="#f8af23"/><path d="m155.277 123.359c-.382-7.853-6.726-14.267-14.575-14.731-5.078-.3-9.664 1.843-12.702 5.361-3.038-3.517-7.623-5.661-12.701-5.361-7.849.464-14.193 6.878-14.575 14.731-.165 3.398.759 6.568 2.457 9.195l15.45 23.681c4.414 6.766 14.324 6.766 18.738 0l15.45-23.681c1.699-2.628 2.623-5.798 2.458-9.195z" fill="#f46275"/><path d="m128.429 103.803h-.858c-4.321 0-7.823-3.503-7.823-7.823v-14.017c0-4.321 3.503-7.823 7.823-7.823h.858c4.321 0 7.823 3.503 7.823 7.823v14.016c.001 4.321-3.502 7.824-7.823 7.824z" fill="#f8af23"/><path d="m119.748 81.963v14.017c0 3.811 2.726 6.981 6.333 7.678v-29.373c-3.607.696-6.333 3.867-6.333 7.678z" fill="#f87023"/><g><circle cx="100.705" cy="54.87" fill="#f87023" r="5.489"/><circle cx="155.296" cy="54.87" fill="#f8af23" r="5.489"/></g><path d="m129.419 88.06h-2.838c-14.291 0-25.876-11.585-25.876-25.876v-12.903c0-14.291 11.585-25.876 25.876-25.876h2.838c14.291 0 25.876 11.585 25.876 25.876v12.902c.001 14.292-11.584 25.877-25.876 25.877z" fill="#f8af23"/><g><path d="m115.371 62.184v-12.902c0-12.255 8.523-22.514 19.962-25.189-1.9-.445-3.878-.687-5.914-.687h-2.838c-14.291 0-25.876 11.585-25.876 25.876v12.902c0 14.291 11.585 25.876 25.876 25.876h2.838c2.036 0 4.014-.243 5.914-.687-11.439-2.676-19.962-12.934-19.962-25.189z" fill="#f87023"/></g><path d="m126.227 48.263c-4.391-1.01-12.154-3.6-12.154-3.6-1.197-.339-2.46.263-2.95 1.406l-.905 2.112c-1.564 3.648-4.28 6.683-7.734 8.64l-1.78 1.007-4.32-16.64c-1.729-6.725-.288-13.872 3.91-19.403l2.684-3.536c2.458-3.237 6.027-5.45 10.02-6.211 0 0 9.071-2.024 13.64-2.686.773-.112 2.031-.101 2.804.016 4.082.615 11.736 2.323 11.736 2.323 5.165.984 9.783 3.846 12.962 8.034l1.563 2.059c4.199 5.531 5.639 12.677 3.91 19.403l-4.32 16.64-1.78-1.007c-3.454-1.957-6.17-4.992-7.734-8.64l-.905-2.112c-.49-1.143-1.753-1.745-2.95-1.406 0 0-7.763 2.589-12.154 3.6-.973.226-2.567.226-3.543.001z" fill="#707070"/><g><path d="m114.962 21.787 2.684-3.536c2.458-3.238 6.027-5.45 10.02-6.21 0 0 3.722-.83 7.598-1.601-2.037-.412-4.207-.826-5.821-1.069-.772-.116-2.031-.128-2.804-.016-4.568.661-13.639 2.685-13.639 2.685-3.993.76-7.563 2.973-10.02 6.21l-2.684 3.536c-4.199 5.531-5.639 12.677-3.91 19.403l4.32 16.64 1.78-1.008c3.454-1.957 6.17-4.991 7.734-8.64l.905-2.112c.197-.459.521-.825.913-1.084l-.986-3.797c-1.729-6.724-.289-13.871 3.91-19.401z" fill="#5b5b5b"/></g><path d="m93.788 92.357-40.599 39.016c-7.173 6.893-2.294 19.012 7.654 19.012h39.862v-20.394h-19.393l12.475-13.186v-24.448z" fill="#cecece"/><g><path d="m67.855 131.373 25.933-24.921v-14.095l-40.599 39.016c-7.173 6.893-2.294 19.012 7.654 19.012h14.667c-9.949 0-14.828-12.119-7.655-19.012z" fill="#afafaf"/></g><path d="m100.705 129.991 11.105-13.457c1.098-1.33 3.258-.554 3.258 1.171v27.033c0 3.119-2.529 5.648-5.648 5.648h-8.715z" fill="#f8af23"/><path d="m162.212 92.357 40.599 39.016c7.173 6.893 2.294 19.012-7.654 19.012h-39.862v-20.394h19.392l-12.475-13.186z" fill="#cecece"/><path d="m155.295 129.991-11.105-13.457c-1.098-1.33-3.258-.554-3.258 1.171v27.033c0 3.119 2.529 5.648 5.648 5.648h8.715z" fill="#f8af23"/><g><path d="m188.145 131.373-25.933-24.921v-14.095l40.599 39.016c7.173 6.893 2.294 19.012-7.654 19.012h-14.667c9.949 0 14.828-12.119 7.655-19.012z" fill="#e2e2e2"/></g><g fill="#3f3679"><path d="m25.89 245.224h-18.5c-.829 0-1.5.672-1.5 1.5s.671 1.5 1.5 1.5h18.5c.829 0 1.5-.672 1.5-1.5s-.672-1.5-1.5-1.5z"/><path d="m248.61 245.224h-18.5c-.829 0-1.5.672-1.5 1.5s.671 1.5 1.5 1.5h18.5c.829 0 1.5-.672 1.5-1.5s-.671-1.5-1.5-1.5z"/><path d="m215.337 245.224h-174.674c-.829 0-1.5.672-1.5 1.5s.671 1.5 1.5 1.5h174.674c.829 0 1.5-.672 1.5-1.5s-.671-1.5-1.5-1.5z"/><path d="m7.39 236.47h51.742 61.275 30.222 46.24 51.742c.829 0 1.5-.672 1.5-1.5s-.671-1.5-1.5-1.5h-42.782c2.305-1.779 4.072-4.27 5.009-7.282 1.944-6.245-.28-12.681-5.667-16.394l-41.459-28.577v-29.332h31.445c5.227 0 9.687-3.012 11.639-7.86s.824-10.11-2.945-13.732l-40.599-39.016v.003c-.27-.26-.635-.422-1.039-.422h-24.459v-2.598c11.032-3.534 19.043-13.885 19.043-26.076v-.496c3.142-.696 5.489-3.522 5.489-6.819 0-2.365-1.211-4.562-3.154-5.842l1.938-7.464c1.854-7.213.334-14.751-4.168-20.683l-1.563-2.06c-3.409-4.491-8.337-7.546-13.831-8.591-.314-.07-7.753-1.727-11.84-2.343-.939-.143-2.334-.148-3.243-.017-4.571.662-13.378 2.623-13.705 2.696-4.365.832-8.249 3.239-10.934 6.777l-2.684 3.536c-4.503 5.932-6.022 13.47-4.167 20.687l1.938 7.466c-1.963 1.283-3.156 3.445-3.156 5.836 0 3.344 2.307 6.135 5.489 6.823v.492c0 12.19 8.011 22.542 19.043 26.076v2.598h-24.46c-.403 0-.768.161-1.037.42l-.002-.001-40.599 39.016c-3.769 3.622-4.897 8.884-2.945 13.732s6.412 7.86 11.639 7.86h31.445v29.332l-41.459 28.577c-5.386 3.713-7.61 10.148-5.667 16.394.938 3.012 2.704 5.503 5.009 7.282h-42.783c-.829 0-1.5.672-1.5 1.5s.671 1.502 1.5 1.502zm114.516-3v-22.432h28.722c5.561 0 10.084 4.523 10.084 10.084v2.264c0 5.561-4.523 10.084-10.084 10.084zm82.107-90.567c-1.164 2.892-4.102 5.981-8.856 5.981h-38.362v-17.394h17.892c.599 0 1.141-.356 1.378-.907.237-.55.124-1.188-.288-1.624l-12.065-12.751v-20.33l38.06 36.575c3.428 3.296 3.405 7.56 2.241 10.45zm-101.808-12.373 10.763-13.042c.037-.045.154-.183.375-.103.225.08.225.26.225.318v27.033c0 2.287-1.861 4.147-4.148 4.147h-7.215zm12.152-15.967c-1.343-.481-2.797-.083-3.704 1.017l-8.355 10.124c-.083-.749-.114-1.507-.076-2.271.343-7.046 6.125-12.891 13.165-13.307 4.404-.258 8.594 1.505 11.478 4.845.57.66 1.7.66 2.271 0 2.884-3.34 7.064-5.103 11.478-4.845 7.039.416 12.822 6.261 13.165 13.306.037.765.004 1.522-.078 2.271l-8.354-10.123c-.907-1.1-2.36-1.5-3.705-1.017-1.342.482-2.209 1.716-2.209 3.142v27.033c0 1.418.42 2.737 1.135 3.85l-4.454 6.828c-1.795 2.751-4.828 4.394-8.113 4.394s-6.318-1.643-8.113-4.394l-4.455-6.828c.715-1.113 1.135-2.432 1.135-3.85v-27.033c-.001-1.428-.868-2.66-2.211-3.142zm28.076 30.174v-27.033c0-.059 0-.238.224-.318.049-.018.093-.024.131-.024.139 0 .216.092.245.128l10.762 13.041v18.354h-7.215c-2.287 0-4.147-1.861-4.147-4.148zm21.279-24.163 7.491 7.917h-7.491zm-4.427-65.705c0 1.646-1.031 3.076-2.489 3.677v-.526l1.499-5.773c.623.715.99 1.643.99 2.622zm-57.795-32.175 2.684-3.536c2.236-2.947 5.47-4.952 9.152-5.654.09-.02 9.068-2.019 13.528-2.665.29-.042.689-.063 1.098-.063.458 0 .927.025 1.268.077 3.982.601 11.557 2.287 11.679 2.313 4.81.916 9.088 3.567 12.048 7.468l1.563 2.06c3.945 5.196 5.276 11.802 3.653 18.118l-3.83 14.75-.079-.045c-3.15-1.785-5.669-4.6-7.095-7.927l-.905-2.111c-.785-1.832-2.824-2.806-4.803-2.238-.077.025-7.746 2.578-12.015 3.561-.752.174-2.121.174-2.873 0-4.27-.982-11.939-3.535-12.081-3.581-1.916-.542-3.953.427-4.738 2.259l-.906 2.111c-1.425 3.327-3.945 6.142-7.093 7.926l-.081.046-3.829-14.746c-1.622-6.321-.291-12.926 3.655-18.123zm-4.774 32.175c0-.992.363-1.913.989-2.626l1.5 5.777v.533c-1.472-.593-2.489-2.011-2.489-3.684zm5.489 7.315v-3.48l1.02-.577c3.717-2.105 6.69-5.428 8.373-9.354l.905-2.111c.193-.449.693-.685 1.097-.574.32.106 7.882 2.623 12.292 3.639 1.201.276 3.016.277 4.219 0 4.41-1.016 11.972-3.532 12.227-3.618.473-.135.969.104 1.162.554l.905 2.111c1.683 3.927 4.656 7.249 8.375 9.355l1.019.576v3.479c0 13.441-10.935 24.377-24.376 24.377h-2.838c-13.445 0-24.38-10.936-24.38-24.377zm24.376 27.377h2.838c1.825 0 3.607-.183 5.333-.525v6.944c0 3.486-2.837 6.323-6.324 6.323h-.858c-3.487 0-6.324-2.837-6.324-6.323v-6.944c1.728.341 3.51.525 5.335.525zm.99 15.742h.858c5.141 0 9.324-4.183 9.324-9.323v-2.122h22.959v34.634h-4.496c.446-1.688.644-3.433.558-5.206-.417-8.554-7.438-15.649-15.984-16.154-4.802-.285-9.373 1.408-12.791 4.683-3.417-3.273-7.989-4.968-12.79-4.683-8.547.505-15.569 7.601-15.984 16.154-.087 1.772.112 3.517.558 5.206h-4.496v-11.686-22.949h22.96v2.122c.001 5.141 4.183 9.324 9.324 9.324zm-35.283 23.188h-7.491l7.491-7.917zm-40.301 14.413c-1.164-2.892-1.187-7.155 2.241-10.449l38.06-36.576v20.33l-12.065 12.751c-.412.436-.525 1.074-.288 1.624.237.551.779.907 1.378.907h17.892v17.394h-38.362c-4.754 0-7.692-3.09-8.856-5.981zm48.718 8.981h8.715c1.416 0 2.733-.419 3.844-1.131l4.111 6.3c2.351 3.604 6.323 5.755 10.625 5.755s8.274-2.151 10.625-5.755l4.11-6.3c1.112.713 2.429 1.131 3.844 1.131h8.715 5.417v28.62h-65.423v-28.62zm-52.678 73.411c-1.545-4.965.223-10.08 4.504-13.031l41.724-28.76h67.491l41.724 28.76c4.281 2.951 6.049 8.066 4.504 13.031-1.545 4.966-5.904 8.174-11.104 8.174h-37.913c2.903-2.402 4.757-6.03 4.757-10.084v-2.264c0-7.215-5.87-13.084-13.084-13.084h-30.222-29.731c-.829 0-1.5.672-1.5 1.5s.671 1.5 1.5 1.5h28.229v22.432h-59.775c-5.2 0-9.559-3.208-11.104-8.174z"/><circle cx="117.147" cy="63.529" r="2.643"/><circle cx="138.854" cy="63.529" r="2.643"/><path d="m128 71.489c.829 0 1.5-.672 1.5-1.5v-4.426c0-.828-.671-1.5-1.5-1.5s-1.5.672-1.5 1.5v4.426c0 .828.672 1.5 1.5 1.5z"/><path d="m133.406 76.798c.546-.622.484-1.57-.139-2.116-.623-.547-1.57-.484-2.117.14-.799.911-1.947 1.434-3.15 1.434s-2.351-.522-3.15-1.434c-.546-.624-1.494-.688-2.117-.14-.623.546-.685 1.494-.139 2.116 1.368 1.562 3.339 2.457 5.406 2.457s4.038-.896 5.406-2.457z"/><path d="m120.644 56.039h-6.995c-.829 0-1.5.672-1.5 1.5s.671 1.5 1.5 1.5h6.995c.829 0 1.5-.672 1.5-1.5s-.671-1.5-1.5-1.5z"/><path d="m135.356 59.039h6.995c.829 0 1.5-.672 1.5-1.5s-.671-1.5-1.5-1.5h-6.995c-.829 0-1.5.672-1.5 1.5s.672 1.5 1.5 1.5z"/></g></g></svg>